<?xml version="1.0" standalone="no"?>
<!DOCTYPE svg PUBLIC "-//W3C//DTD SVG 20010904//EN"
 "http://www.w3.org/TR/2001/REC-SVG-20010904/DTD/svg10.dtd">
<svg version="1.0" xmlns="http://www.w3.org/2000/svg"
 width="6000.000000pt" height="3150.000000pt" viewBox="0 0 6000.000000 3150.000000"
 preserveAspectRatio="xMidYMid meet">

<g transform="translate(0.000000,3150.000000) scale(0.100000,-0.100000)"
fill="#000000" stroke="none">
<path d="M6870 22711 c-42 -24 -550 -44 -1387 -57 -458 -7 -461 -7 -467 -28
-13 -47 -7 -66 19 -66 18 0 25 -5 25 -20 0 -11 -4 -20 -10 -20 -5 0 -10 -7
-10 -15 0 -8 5 -15 10 -15 6 0 10 -11 10 -25 0 -16 6 -25 15 -25 20 0 19 -27
-1 -38 -18 -10 -10 -60 12 -69 8 -3 14 -14 14 -24 0 -10 6 -19 14 -19 16 0 30
-110 16 -124 -13 -13 -13 -26 0 -26 6 0 10 7 10 15 0 8 7 15 15 15 8 0 15 -4
15 -10 0 -5 -4 -10 -10 -10 -5 0 -10 -9 -10 -20 0 -11 7 -20 15 -20 8 0 15 -9
15 -20 0 -13 7 -20 20 -20 11 0 20 -7 20 -15 0 -8 -6 -15 -14 -15 -9 0 -12 -7
-9 -20 3 -11 12 -20 19 -20 8 0 14 -7 14 -15 0 -8 -9 -15 -20 -15 -11 0 -20
-6 -20 -14 0 -9 8 -12 24 -9 18 4 26 0 31 -17 4 -12 1 -27 -5 -35 -11 -13 -8
-14 20 -9 l32 7 -4 -61 c-3 -58 -2 -61 17 -57 11 3 14 2 8 -1 -18 -8 -16 -44
2 -44 8 0 15 -7 15 -15 0 -8 7 -15 15 -15 17 0 18 -3 20 -82 2 -59 18 -87 52
-89 10 0 13 -3 6 -6 -18 -7 -16 -33 1 -33 9 0 12 -7 9 -20 -4 -15 0 -20 16
-20 30 0 29 -40 -1 -41 -15 0 -18 -2 -8 -6 8 -3 19 -12 23 -19 4 -8 14 -14 21
-14 8 0 16 -7 20 -15 3 -8 12 -15 21 -15 8 0 15 -4 15 -10 0 -14 -37 -50 -44
-42 -3 3 -6 -2 -6 -11 0 -11 8 -17 24 -17 30 0 47 -20 39 -48 -3 -13 -1 -22 6
-22 6 0 11 5 11 10 0 6 5 10 11 10 7 0 9 -12 7 -31 -4 -24 -1 -33 12 -36 13
-3 20 -19 24 -54 4 -27 11 -49 16 -49 6 0 10 -7 10 -15 0 -8 5 -15 10 -15 6 0
10 5 10 10 0 6 5 10 10 10 6 0 10 -16 10 -35 0 -28 4 -35 20 -35 16 0 20 -7
20 -30 0 -23 4 -30 20 -30 13 0 20 -7 20 -20 0 -11 7 -20 15 -20 8 0 15 -9 15
-20 0 -15 7 -20 26 -20 21 0 24 -4 19 -20 -4 -14 -2 -20 8 -20 8 0 17 -13 21
-30 3 -18 12 -30 21 -30 11 0 15 -6 10 -19 -8 -25 11 -71 30 -71 8 0 15 -7 15
-15 0 -8 9 -15 20 -15 14 0 20 -7 20 -21 0 -16 4 -19 20 -14 11 3 20 2 20 -3
0 -29 -57 -31 -848 -34 l-804 -3 -20 -25 c-15 -19 -18 -32 -12 -60 4 -19 8
-1765 9 -3878 2 -2806 6 -3847 14 -3855 8 -8 11 1021 11 3872 l0 3882 1283 -4
c1370 -4 1376 -4 1762 -57 1241 -172 2155 -697 2740 -1575 321 -483 504 -1008
586 -1686 20 -160 23 -234 23 -574 1 -397 -4 -479 -44 -750 -36 -243 -96 -496
-170 -712 -45 -132 -43 -126 -31 -119 16 10 19 -17 6 -49 -7 -16 -18 -48 -25
-70 -7 -22 -26 -68 -41 -103 -16 -34 -29 -68 -29 -75 0 -7 -4 -17 -9 -23 -5
-5 -36 -61 -69 -124 -71 -139 -89 -171 -159 -278 -207 -320 -482 -616 -803
-864 -19 -15 -78 -57 -130 -92 -291 -195 -575 -334 -920 -450 -559 -187 -1173
-276 -1914 -276 -166 0 -267 -4 -271 -10 -3 -5 -22 -10 -41 -10 -24 0 -34 -5
-34 -15 0 -11 -7 -14 -25 -9 -20 5 -24 3 -19 -9 4 -12 -2 -18 -20 -23 -14 -3
-26 -12 -26 -19 0 -7 -18 -15 -40 -19 -26 -4 -40 -11 -40 -21 0 -9 -7 -18 -15
-21 -8 -4 -15 -12 -15 -20 0 -10 -13 -14 -41 -14 -32 0 -42 -4 -46 -19 -3 -12
-17 -21 -39 -26 -20 -3 -34 -12 -34 -20 0 -10 -10 -15 -30 -15 -26 0 -30 -3
-30 -29 0 -25 -5 -30 -36 -35 -19 -4 -38 -14 -41 -22 -3 -7 -13 -14 -22 -15
-10 0 -11 -2 -3 -6 20 -8 14 -33 -8 -33 -13 0 -20 -7 -20 -19 0 -15 -7 -19
-30 -19 -35 1 -66 -26 -76 -69 -7 -29 -23 -45 -36 -37 -4 3 -5 16 -2 30 5 18
2 24 -10 24 -21 0 -21 -43 -1 -60 16 -13 21 -40 7 -40 -4 0 -13 5 -20 12 -16
16 -39 -5 -64 -64 -16 -39 -25 -48 -45 -48 -13 0 -22 -4 -19 -9 11 -17 -19
-61 -41 -61 -13 0 -23 5 -23 10 0 6 -7 10 -15 10 -8 0 -15 -7 -15 -15 0 -8 5
-15 10 -15 18 0 10 -29 -10 -35 -11 -3 -20 -15 -20 -26 0 -10 -7 -19 -15 -19
-8 0 -15 7 -15 15 0 29 -28 15 -36 -17 -3 -18 -15 -40 -25 -49 -11 -9 -19 -24
-19 -33 0 -10 -9 -16 -25 -16 -18 0 -25 -5 -25 -20 0 -13 -7 -20 -19 -20 -27
0 -37 -21 -18 -35 25 -18 21 -28 -8 -21 -23 6 -24 4 -19 -24 5 -23 3 -30 -10
-30 -9 0 -16 -6 -16 -14 0 -8 -9 -18 -20 -21 -11 -3 -20 -15 -20 -26 0 -10 -4
-19 -10 -19 -5 0 -10 -7 -10 -15 0 -8 -9 -15 -20 -15 -11 0 -20 -7 -20 -15 0
-8 -7 -15 -15 -15 -9 0 -18 -12 -21 -30 -5 -20 -12 -30 -25 -30 -20 0 -59 -29
-59 -43 0 -4 4 -5 10 -2 6 3 10 1 10 -4 0 -6 -7 -11 -15 -11 -8 0 -15 -7 -15
-15 0 -8 -4 -15 -10 -15 -5 0 -10 -9 -10 -20 0 -11 -7 -20 -15 -20 -9 0 -12
-6 -9 -15 5 -11 -1 -15 -20 -15 -22 0 -26 -4 -26 -30 0 -23 -4 -30 -20 -30
-14 0 -20 -7 -20 -22 0 -43 -12 -68 -31 -68 -12 0 -19 -7 -19 -19 0 -12 -9
-21 -26 -25 -23 -6 -26 -11 -22 -41 2 -19 0 -35 -4 -35 -4 0 -8 -9 -8 -20 0
-13 -7 -20 -20 -20 -11 0 -20 -7 -20 -15 0 -8 -6 -15 -14 -15 -8 0 -16 -16
-20 -40 -4 -26 -11 -40 -21 -40 -8 0 -15 -4 -15 -10 0 -5 7 -10 15 -10 8 0 15
-9 15 -20 0 -13 -7 -20 -20 -20 -13 0 -20 -7 -20 -20 0 -11 -6 -20 -14 -20 -9
0 -16 -17 -20 -45 -5 -29 -12 -45 -22 -45 -8 0 -14 -7 -14 -15 0 -8 -10 -17
-22 -19 -36 -7 -3013 -17 -3031 -10 -16 6 -17 405 -17 6099 0 4052 -3 6096
-10 6100 -7 4 -10 -2042 -10 -6129 l0 -6136 2828 0 c2811 0 3137 3 3597 36
2002 139 3558 695 4695 1676 320 276 628 610 850 921 34 48 64 86 67 84 2 -3
57 -110 122 -238 131 -261 586 -1159 873 -1724 103 -203 261 -515 350 -692
l163 -323 710 0 711 0 13 36 c12 33 51 115 308 644 45 91 107 219 138 285 32
66 95 197 140 290 45 94 115 238 155 320 40 83 111 229 158 325 46 96 113 234
147 305 141 294 276 574 435 900 98 202 193 398 295 610 34 72 94 195 132 275
39 80 113 233 166 340 95 196 186 383 302 625 34 72 94 195 132 275 39 80 98
201 131 270 33 69 114 235 179 370 66 135 137 282 159 327 21 46 42 83 47 83
4 0 7 -1370 7 -3045 l0 -3045 1627 0 1626 0 -6 3945 c-6 3505 -5 3945 8 3945
19 0 19 35 0 205 -8 72 -15 154 -15 183 0 28 -4 52 -10 52 -5 0 -10 -10 -11
-22 l0 -23 -10 23 c-6 15 -5 31 2 44 11 20 6 33 -14 33 -7 0 -11 11 -9 27 2
15 -5 42 -15 59 -13 24 -15 33 -5 36 20 8 14 25 -7 18 -17 -5 -20 1 -26 59 -5
41 -14 72 -25 84 -10 11 -22 36 -25 56 -4 20 -11 36 -15 36 -5 0 -6 9 -3 20 3
11 0 20 -6 20 -6 0 -11 17 -11 39 0 22 -4 43 -10 46 -5 3 -10 17 -10 31 0 14
-4 23 -9 20 -4 -3 -11 22 -14 57 -3 34 -10 63 -16 65 -6 2 -11 11 -11 21 0 9
-9 24 -20 34 -11 9 -20 28 -20 41 0 14 -4 28 -10 31 -5 3 -10 19 -10 36 0 16
-4 29 -9 29 -8 0 -20 62 -22 118 -1 12 -7 22 -15 22 -8 0 -15 6 -15 13 -1 6
-3 19 -4 27 -1 8 -3 28 -4 44 -1 21 -5 27 -16 22 -12 -4 -14 0 -9 19 4 18 1
27 -11 31 -12 5 -15 14 -11 35 3 15 1 29 -4 31 -5 2 -15 26 -21 53 -7 28 -19
57 -26 66 -8 9 -11 24 -7 33 4 11 1 16 -10 16 -12 0 -16 10 -16 45 0 32 -5 47
-15 51 -9 4 -14 11 -13 18 2 15 -34 86 -44 86 -4 0 -8 22 -8 49 0 28 -4 52 -9
56 -14 8 -41 65 -41 87 0 10 -5 18 -11 18 -6 0 -8 9 -4 20 3 11 2 20 -3 20 -6
0 -15 14 -21 30 -5 17 -15 30 -20 30 -6 0 -11 11 -11 25 0 14 -5 25 -11 25 -5
0 -8 4 -4 9 3 5 1 12 -4 15 -5 4 -12 24 -16 46 -4 22 -11 40 -16 40 -5 0 -9 7
-9 15 0 8 -4 23 -9 33 -5 9 -15 31 -22 47 -8 17 -17 32 -20 35 -4 3 -11 25
-16 50 -7 35 -13 46 -30 48 -20 3 -41 42 -22 42 5 0 9 4 9 10 0 5 -7 7 -16 3
-14 -5 -16 -2 -10 20 3 14 2 29 -4 32 -5 3 -10 1 -10 -4 0 -6 -5 -11 -11 -11
-14 0 -5 38 20 95 10 22 26 58 36 80 17 37 64 137 164 348 23 48 80 168 128
265 47 97 111 231 143 297 32 66 90 186 129 268 85 177 87 184 31 152 -37 -21
-43 -18 -37 20 l6 35 -333 0 c-389 0 -787 -10 -781 -20 7 -11 -1330 -39 -1886
-40 -152 0 -303 -3 -335 -6 l-59 -7 -30 -66 c-16 -36 -69 -148 -117 -249 -49
-100 -88 -185 -88 -187 0 -5 -153 -324 -202 -420 -11 -22 -78 -166 -150 -320
-72 -154 -152 -327 -179 -384 -27 -57 -49 -105 -49 -106 0 -2 -28 -61 -61
-132 -34 -70 -91 -191 -126 -268 -36 -77 -82 -176 -103 -220 -20 -44 -51 -109
-68 -145 -16 -36 -51 -109 -76 -163 -25 -54 -46 -100 -46 -102 0 -2 -24 -55
-54 -117 -29 -62 -62 -133 -74 -158 -11 -25 -43 -94 -72 -155 -29 -60 -68
-144 -87 -185 -19 -41 -52 -112 -74 -158 -21 -46 -39 -85 -39 -88 0 -3 -31
-70 -70 -150 -38 -80 -70 -148 -70 -151 0 -6 -119 -269 -186 -411 -30 -63 -54
-115 -54 -117 0 -3 -29 -66 -64 -142 -80 -171 -324 -706 -418 -913 -38 -85
-80 -175 -93 -200 -13 -25 -32 -68 -44 -96 -11 -28 -45 -104 -75 -169 -31 -65
-56 -119 -56 -121 0 -2 -14 -34 -31 -71 -147 -319 -199 -434 -199 -438 0 -2
-25 -56 -55 -120 -30 -63 -55 -118 -55 -122 0 -6 -9 -26 -63 -145 -28 -60 -51
-75 -102 -66 -13 3 -22 1 -19 -3 3 -5 0 -9 -5 -9 -10 0 -116 211 -353 700 -39
80 -122 247 -184 371 -62 125 -110 229 -107 233 4 3 2 6 -4 6 -11 0 -40 59
-35 73 1 4 -2 7 -6 7 -8 0 -33 60 -29 71 1 4 -5 15 -14 25 -25 28 -189 361
-182 368 4 3 1 6 -5 6 -6 0 -14 10 -18 23 -3 12 -51 110 -105 218 -54 109 -95
200 -92 203 4 3 2 6 -4 6 -12 0 -33 44 -33 71 0 11 -4 18 -8 15 -7 -4 -39 55
-33 63 1 2 -1 7 -6 10 -4 3 -19 29 -32 56 -13 28 -32 66 -42 86 -11 20 -19 44
-19 52 0 8 -4 17 -9 19 -11 4 -101 186 -101 204 0 8 -4 14 -8 14 -8 0 -47 76
-47 92 0 4 -6 13 -12 19 -7 7 -13 17 -13 22 0 6 -43 95 -95 198 -53 104 -92
189 -88 189 5 0 3 4 -3 8 -6 4 -47 81 -91 172 -150 308 -454 925 -475 965 -12
22 -25 47 -29 55 -3 8 -17 35 -29 60 -13 25 -61 122 -108 215 -91 183 -89 181
-97 173 -3 -3 4 -22 16 -43 22 -36 32 -85 18 -85 -14 0 -29 28 -23 44 3 9 1
16 -5 16 -19 0 -32 48 -19 69 7 11 8 26 3 37 -8 18 -9 17 -12 -4 -3 -12 -9
-20 -14 -17 -13 9 -11 43 3 47 6 2 8 10 4 17 -6 9 -11 9 -21 1 -9 -8 -15 -8
-20 0 -4 6 -14 9 -22 8 -9 -2 -18 3 -20 10 -3 7 1 10 11 6 19 -7 20 0 6 27 -6
10 -19 19 -30 19 -28 0 -50 11 -50 25 0 21 29 26 54 10 24 -16 36 -11 36 13 0
9 -6 12 -16 8 -10 -4 -23 3 -34 16 -15 19 -21 21 -31 11 -7 -7 -17 -13 -21
-13 -13 0 -9 38 5 44 12 5 3 16 -37 41 -8 6 -17 24 -20 40 -2 17 -5 32 -6 35
-1 3 -2 14 -1 25 1 19 0 19 -15 -2 -31 -43 -39 -26 -17 35 3 6 0 12 -6 12 -6
0 -11 -7 -11 -15 0 -18 -17 -19 -34 -2 -19 18 -30 57 -17 57 6 0 11 -4 11 -10
0 -19 18 -10 23 12 4 15 -1 29 -19 45 -23 22 -24 25 -10 45 30 42 12 65 -25
32 -21 -19 -48 -7 -68 30 -11 20 -11 28 -2 40 7 9 8 17 2 20 -5 3 -7 15 -4 26
4 14 0 20 -11 20 -10 0 -13 6 -10 15 4 8 2 15 -4 15 -6 0 -12 -5 -14 -12 -3
-7 -12 -9 -22 -5 -12 5 -15 13 -11 26 8 26 -16 80 -49 110 -14 14 -26 33 -26
43 0 13 -8 18 -30 18 -32 0 -40 14 -15 24 8 3 15 1 15 -4 0 -6 7 -10 15 -10 8
0 15 5 15 10 0 6 -4 10 -9 10 -5 0 -11 9 -14 20 -3 12 -14 20 -25 20 -11 0
-22 7 -26 15 -3 8 -12 15 -20 15 -7 0 -17 7 -20 16 -5 13 -1 15 19 11 20 -3
25 -1 21 10 -3 8 -6 17 -6 19 0 2 -9 4 -20 4 -13 0 -18 5 -14 15 4 8 -1 17 -9
21 -9 3 -13 12 -10 19 4 12 -9 45 -39 95 -5 8 -11 23 -14 32 -3 9 -19 21 -35
27 -27 9 -74 69 -63 80 3 3 10 -2 15 -12 12 -21 29 -22 29 -2 0 8 -5 15 -11
15 -6 0 -8 9 -4 20 4 13 2 20 -8 20 -7 0 -18 17 -24 38 -9 33 -11 34 -12 10
-1 -31 -13 -34 -54 -15 -29 13 -36 27 -13 27 8 0 17 7 20 16 8 22 8 24 -7 18
-16 -6 -65 47 -59 64 2 7 -1 12 -6 12 -15 0 -24 31 -13 44 6 7 5 18 -4 29 -11
16 -14 16 -28 2 -20 -19 -31 -19 -23 0 3 9 -1 18 -8 21 -8 3 -18 23 -21 45 -5
26 -15 45 -31 56 -13 8 -28 29 -33 47 -5 17 -10 23 -10 14 -1 -10 -8 -18 -16
-18 -14 0 -17 9 -20 65 -1 11 -13 32 -27 46 l-26 26 -948 12 c-522 7 -1088 16
-1259 21 -170 5 -354 10 -408 10 -54 0 -96 4 -93 9 8 13 -462 25 -477 12 -9
-7 -66 -4 -187 9 -253 28 -561 49 -803 55 -117 3 -270 7 -342 10 -71 2 -137 0
-145 -4z m4890 -491 c0 -5 -4 -10 -10 -10 -5 0 -10 5 -10 10 0 6 5 10 10 10 6
0 10 -4 10 -10z m235 -350 c3 -6 -1 -7 -9 -4 -18 7 -21 14 -7 14 6 0 13 -4 16
-10z m882 -1482 c-3 -8 -6 -5 -6 6 -1 11 2 17 5 13 3 -3 4 -12 1 -19z m33 -48
c0 -5 -4 -10 -10 -10 -5 0 -10 5 -10 10 0 6 5 10 10 10 6 0 10 -4 10 -10z
m7883 -365 c-3 -9 -8 -14 -10 -11 -3 3 -2 9 2 15 9 16 15 13 8 -4z m-7655 -93
c2 -7 -2 -10 -12 -6 -9 3 -16 11 -16 16 0 13 23 5 28 -10z m7321 -606 c-7 -14
-16 -26 -20 -26 -4 0 -1 14 8 31 18 36 29 33 12 -5z m-44 -85 c-8 -17 -18 -31
-21 -31 -3 0 -3 4 0 9 3 4 10 21 16 36 6 15 13 25 16 22 3 -3 -2 -19 -11 -36z
m-34 -68 c-12 -20 -14 -14 -5 12 4 9 9 14 11 11 3 -2 0 -13 -6 -23z m-58 -118
c-3 -9 -8 -14 -10 -11 -3 3 -2 9 2 15 9 16 15 13 8 -4z m-22 -52 c-12 -20 -14
-14 -5 12 4 9 9 14 11 11 3 -2 0 -13 -6 -23z m-21 -36 c0 -7 -7 -22 -15 -33
-13 -17 -13 -16 -3 14 13 34 18 40 18 19z m-43 -89 c-3 -8 -6 -5 -6 6 -1 11 2
17 5 13 3 -3 4 -12 1 -19z m-14 -33 c-3 -9 -8 -14 -10 -11 -3 3 -2 9 2 15 9
16 15 13 8 -4z m-41 -87 c-7 -7 -12 -8 -12 -2 0 14 12 26 19 19 2 -3 -1 -11
-7 -17z m-19 -38 c-3 -12 -8 -19 -11 -16 -5 6 5 36 12 36 2 0 2 -9 -1 -20z
m-30 -65 c-9 -19 -19 -33 -21 -30 -6 6 21 65 30 65 4 0 0 -16 -9 -35z m-47
-92 c-8 -15 -15 -25 -16 -21 0 12 23 58 27 54 3 -2 -2 -17 -11 -33z m-26 -52
c-5 -11 -15 -32 -20 -47 -6 -15 -13 -24 -16 -21 -6 5 33 87 42 87 2 0 0 -9 -6
-19z m-48 -103 c-7 -7 -12 -8 -12 -2 0 14 12 26 19 19 2 -3 -1 -11 -7 -17z
m-20 -40 c-7 -7 -12 -8 -12 -2 0 14 12 26 19 19 2 -3 -1 -11 -7 -17z m-41 -84
c-16 -33 -30 -54 -31 -48 0 14 51 116 57 111 2 -3 -9 -31 -26 -63z m-48 -99
c-9 -19 -18 -33 -20 -32 -5 6 21 67 29 67 4 0 0 -16 -9 -35z m-23 -50 c0 -15
-32 -66 -38 -61 -3 4 0 12 6 18 7 7 12 20 12 30 0 10 5 18 10 18 6 0 10 -2 10
-5z m-89 -181 c-27 -55 -50 -95 -50 -89 -1 14 91 197 96 192 2 -3 -18 -49 -46
-103z m-80 -166 c-81 -179 -232 -480 -238 -474 -4 3 -1 12 5 18 7 7 12 20 12
30 0 10 5 18 10 18 6 0 10 5 10 10 0 13 219 460 225 460 2 0 -9 -28 -24 -62z
m-289 -599 c-28 -57 -91 -189 -142 -294 -51 -104 -150 -309 -220 -455 -70
-146 -168 -348 -218 -450 -49 -102 -151 -313 -227 -470 -76 -157 -241 -499
-368 -760 -126 -261 -326 -675 -445 -920 -118 -245 -287 -593 -374 -775 -88
-181 -184 -379 -213 -440 -29 -60 -129 -267 -222 -460 -94 -192 -230 -474
-303 -625 -73 -151 -212 -439 -310 -640 -97 -201 -207 -429 -244 -507 -46 -94
-75 -143 -87 -146 -11 -3 -19 -1 -19 5 0 6 33 78 74 162 41 83 125 255 186
381 62 127 161 329 220 450 214 437 473 968 600 1230 54 110 138 283 188 385
110 226 235 483 357 735 51 105 145 298 210 430 110 226 151 309 373 765 49
102 139 286 199 410 61 124 138 284 173 355 35 72 126 258 202 415 77 157 169
346 205 420 63 129 202 414 368 753 42 87 79 156 81 154 3 -3 -17 -51 -44
-108z m-4112 -1685 c0 -14 -4 -23 -10 -19 -5 3 -10 15 -10 26 0 10 5 19 10 19
6 0 10 -12 10 -26z m-3 -91 c-16 -16 -17 -16 -17 3 0 26 11 37 24 24 7 -7 5
-16 -7 -27z m-9799 -3265 c-5 -34 -38 -37 -38 -4 0 20 5 26 21 26 15 0 20 -5
17 -22z"/>
<path d="M52451 22704 c-763 -104 -1389 -642 -1645 -1414 -91 -277 -121 -476
-121 -815 0 -339 30 -538 121 -815 206 -620 654 -1097 1234 -1313 421 -156
958 -156 1380 0 579 215 1028 692 1234 1313 91 277 121 476 121 815 0 339 -30
538 -121 815 -258 778 -886 1314 -1657 1415 -145 19 -404 18 -546 -1z m439
-155 c247 -22 450 -80 666 -189 367 -185 647 -474 840 -866 153 -311 224 -635
224 -1019 0 -384 -71 -708 -224 -1019 -113 -230 -232 -393 -409 -562 -137
-131 -262 -219 -431 -304 -437 -220 -934 -257 -1407 -104 -138 45 -359 156
-478 241 -445 320 -736 833 -816 1436 -20 155 -20 469 0 624 68 513 281 950
622 1273 134 127 260 216 427 300 312 157 643 221 986 189z"/>
<path d="M56716 22705 c-554 -79 -909 -370 -1028 -842 -31 -121 -33 -425 -4
-548 59 -254 197 -452 417 -597 194 -128 357 -191 887 -339 394 -110 491 -143
657 -223 277 -134 425 -293 495 -536 31 -107 39 -344 15 -461 -83 -411 -398
-671 -900 -743 -314 -46 -589 -22 -876 74 -246 82 -436 196 -608 367 -63 62
-123 113 -132 113 -26 0 -100 -90 -89 -109 20 -36 120 -146 185 -202 255 -221
612 -371 995 -419 107 -13 357 -13 475 0 262 29 490 106 673 227 88 58 218
189 279 280 108 163 161 333 170 550 17 415 -118 700 -430 907 -202 133 -365
194 -962 361 -439 123 -649 211 -817 346 -129 103 -224 244 -270 405 -21 70
-23 99 -22 269 0 177 2 196 27 278 102 331 345 549 713 641 248 62 519 69 764
20 242 -48 501 -162 689 -303 30 -23 62 -41 72 -41 11 0 32 24 55 61 l37 61
-29 24 c-131 109 -370 237 -557 299 -206 67 -326 86 -567 90 -150 3 -245 0
-314 -10z"/>
<path d="M34185 22688 c-3 -7 -4 -1007 -3 -2223 l3 -2210 840 -3 c912 -2 948
-1 1194 54 852 191 1447 889 1567 1839 34 273 17 637 -42 905 -204 924 -879
1540 -1796 1639 -149 17 -1757 15 -1763 -1z m1790 -167 c322 -48 593 -148 835
-308 165 -110 367 -313 479 -482 184 -277 295 -588 342 -961 16 -122 16 -468
0 -590 -47 -373 -158 -684 -342 -961 -112 -169 -314 -372 -479 -482 -281 -186
-588 -288 -954 -317 -71 -5 -441 -10 -822 -10 l-694 0 0 2066 0 2065 778 -4
c526 -3 803 -8 857 -16z"/>
<path d="M39005 22688 c-3 -7 -4 -1007 -3 -2223 l3 -2210 63 -3 c38 -2 69 2
78 9 12 10 14 329 14 2213 0 1699 -3 2205 -12 2214 -16 16 -137 16 -143 0z"/>
<path d="M40026 22682 c-4 -12 329 -850 883 -2223 l889 -2204 75 -3 74 -3 891
2210 c515 1275 889 2216 886 2225 -9 23 -159 23 -168 0 -127 -330 -1681 -4172
-1686 -4167 -4 4 -384 947 -846 2095 l-839 2088 -77 0 c-66 0 -77 -3 -82 -18z"/>
<path d="M44575 22688 c-3 -7 -4 -1007 -3 -2223 l3 -2210 63 -3 c38 -2 69 2
78 9 12 10 14 329 14 2213 0 1699 -3 2205 -12 2214 -16 16 -137 16 -143 0z"/>
<path d="M46335 22688 c-3 -7 -4 -1007 -3 -2223 l3 -2210 66 -3 c47 -2 69 1
77 11 9 10 13 530 14 2055 l3 2042 1426 -2053 1426 -2052 64 0 64 0 3 2223 2
2222 -69 0 c-45 0 -72 -5 -80 -13 -8 -10 -12 -567 -13 -2055 l-3 -2042 -1426
2053 -1426 2052 -62 3 c-43 2 -63 -1 -66 -10z"/>
<path d="M5150 22021 c0 -5 7 -11 15 -15 9 -3 15 0 15 9 0 8 -7 15 -15 15 -8
0 -15 -4 -15 -9z"/>
<path d="M11960 21940 c0 -5 9 -10 20 -10 11 0 20 5 20 10 0 6 -9 10 -20 10
-11 0 -20 -4 -20 -10z"/>
<path d="M5212 21910 c0 -14 2 -19 5 -12 2 6 2 18 0 25 -3 6 -5 1 -5 -13z"/>
<path d="M12150 21640 c0 -5 7 -10 15 -10 8 0 15 5 15 10 0 6 -7 10 -15 10 -8
0 -15 -4 -15 -10z"/>
<path d="M12298 21413 c7 -3 16 -2 19 1 4 3 -2 6 -13 5 -11 0 -14 -3 -6 -6z"/>
<path d="M12450 21270 c0 -5 5 -10 11 -10 5 0 7 5 4 10 -3 6 -8 10 -11 10 -2
0 -4 -4 -4 -10z"/>
<path d="M12376 21235 c-3 -8 -1 -15 4 -15 6 0 10 7 10 15 0 8 -2 15 -4 15 -2
0 -6 -7 -10 -15z"/>
<path d="M12550 21060 c0 -5 5 -10 11 -10 5 0 7 5 4 10 -3 6 -8 10 -11 10 -2
0 -4 -4 -4 -10z"/>
<path d="M12590 20980 c0 -5 5 -10 10 -10 6 0 10 5 10 10 0 6 -4 10 -10 10 -5
0 -10 -4 -10 -10z"/>
<path d="M12585 20920 c3 -5 8 -10 11 -10 2 0 4 5 4 10 0 6 -5 10 -11 10 -5 0
-7 -4 -4 -10z"/>
<path d="M12637 20903 c-4 -3 -7 -11 -7 -17 0 -6 5 -5 12 2 6 6 9 14 7 17 -3
3 -9 2 -12 -2z"/>
<path d="M12716 20735 c4 -8 8 -15 10 -15 2 0 4 7 4 15 0 8 -4 15 -10 15 -5 0
-7 -7 -4 -15z"/>
<path d="M12730 20696 c0 -9 5 -16 10 -16 6 0 10 4 10 9 0 6 -4 13 -10 16 -5
3 -10 -1 -10 -9z"/>
<path d="M35410 17374 c-14 -2 -65 -9 -115 -15 -450 -56 -906 -295 -1202 -629
-259 -293 -417 -634 -495 -1070 -19 -109 -22 -161 -23 -395 0 -293 8 -371 65
-603 191 -783 769 -1335 1557 -1489 127 -25 158 -27 398 -27 204 -1 285 3 375
17 415 65 785 203 1098 410 l122 81 -2 865 -3 866 -534 3 c-384 1 -538 -1
-547 -9 -11 -9 -14 -106 -16 -513 l-3 -501 -80 -28 c-123 -43 -242 -60 -370
-54 -137 7 -215 27 -331 82 -239 115 -400 361 -451 690 -20 131 -12 383 16
506 79 347 276 566 586 651 66 18 106 21 235 21 140 0 164 -3 245 -27 174 -53
341 -164 471 -314 37 -42 76 -78 87 -80 21 -4 50 22 510 477 l298 294 -24 33
c-56 79 -169 202 -252 276 -297 262 -671 423 -1103 473 -113 13 -442 19 -512
9z"/>
<path d="M56550 17370 c-848 -103 -1497 -680 -1700 -1512 -56 -229 -65 -310
-65 -598 0 -288 9 -369 65 -598 206 -844 867 -1423 1729 -1513 144 -15 472 -6
601 16 226 38 411 99 600 196 164 85 287 176 431 319 118 117 245 271 237 288
-2 4 -177 180 -389 390 -236 233 -393 382 -405 382 -11 0 -30 -16 -44 -38 -40
-60 -200 -221 -267 -268 -72 -52 -184 -106 -268 -128 -102 -28 -264 -31 -378
-8 -404 84 -647 445 -647 962 0 210 38 387 116 545 143 289 415 448 739 431
238 -12 403 -92 590 -287 50 -52 101 -111 115 -131 14 -22 33 -38 44 -38 12 0
168 148 405 382 212 211 387 386 389 390 8 17 -120 171 -237 288 -144 143
-267 234 -431 319 -188 97 -373 157 -600 197 -111 19 -513 28 -630 14z"/>
<path d="M37822 17278 c-19 -19 -17 -4021 2 -4037 9 -8 182 -10 627 -9 l614 3
3 503 2 502 148 0 147 0 305 -505 305 -505 660 3 c623 2 660 3 663 20 2 10
-154 276 -362 617 -201 330 -366 604 -366 610 0 5 10 15 23 21 51 26 177 128
248 200 181 184 303 426 361 712 20 97 23 143 23 342 0 261 -16 369 -81 556
-190 547 -632 878 -1287 964 -99 13 -269 15 -1071 15 -727 0 -955 -3 -964 -12z
m1826 -1093 c219 -52 322 -208 310 -469 -10 -201 -92 -320 -263 -382 -43 -16
-91 -19 -337 -22 l-288 -3 0 445 0 446 258 0 c191 0 273 -4 320 -15z"/>
<path d="M42967 17283 c-3 -5 -359 -911 -791 -2015 -457 -1167 -783 -2013
-780 -2022 6 -15 67 -16 638 -14 l631 3 112 325 c62 179 117 335 122 348 l11
22 664 0 c623 0 664 -1 671 -17 5 -15 44 -126 222 -641 l15 -42 641 2 c607 3
642 4 645 21 2 10 -351 922 -784 2027 l-787 2010 -613 0 c-337 0 -615 -3 -617
-7z m773 -1903 l148 -425 -311 -3 c-170 -1 -312 0 -314 2 -4 3 269 803 303
890 7 18 9 17 17 -10 6 -16 76 -220 157 -454z"/>
<path d="M46082 17278 c-19 -19 -17 -4021 2 -4037 9 -8 182 -10 627 -9 l614 3
3 638 2 637 739 0 c702 0 739 1 754 18 15 17 17 68 17 524 0 411 -3 508 -13
517 -10 8 -227 12 -753 13 l-739 3 -3 318 -2 317 843 0 c805 0 845 1 860 18
15 17 17 68 17 523 0 380 -3 508 -12 517 -17 17 -2939 17 -2956 0z"/>
<path d="M49542 17278 c-19 -19 -17 -4021 2 -4037 9 -8 182 -10 627 -9 l614 3
3 638 2 637 739 0 c702 0 739 1 754 18 15 17 17 68 17 524 0 411 -3 508 -13
517 -10 8 -227 12 -753 13 l-739 3 -3 318 -2 317 843 0 c805 0 845 1 860 18
15 17 17 68 17 523 0 380 -3 508 -12 517 -17 17 -2939 17 -2956 0z"/>
<path d="M52992 17278 c-19 -19 -17 -4021 2 -4037 9 -8 182 -10 627 -9 l614 3
0 2025 0 2025 -615 3 c-471 2 -619 -1 -628 -10z"/>
<path d="M33670 11550 l0 -1250 12350 0 12350 0 0 1250 0 1250 -12350 0
-12350 0 0 -1250z m3474 644 c8 -21 2 -28 -114 -129 l-98 -85 -75 0 c-59 0
-76 3 -81 16 -7 18 2 31 94 138 l65 75 101 0 c85 1 103 -2 108 -15z m-1951
-254 c70 -22 171 -89 200 -134 l18 -27 -58 -64 c-32 -35 -64 -64 -71 -65 -8 0
-34 18 -60 40 -133 118 -347 77 -428 -82 -46 -90 -48 -242 -5 -327 54 -105
134 -155 251 -155 49 0 88 5 113 16 l37 17 0 142 c0 177 1 179 105 179 42 0
76 -5 83 -12 9 -9 12 -71 12 -216 0 -233 6 -216 -101 -271 -95 -50 -159 -64
-278 -59 -98 3 -112 6 -184 40 -93 45 -166 115 -214 204 -45 85 -63 162 -63
274 0 112 18 189 63 274 58 110 182 209 295 235 71 17 215 12 285 -9z m4120 0
c70 -22 171 -89 200 -134 21 -31 21 -32 -52 -108 -25 -27 -51 -48 -59 -48 -8
0 -34 18 -60 40 -132 117 -337 77 -418 -82 -68 -134 -39 -329 62 -418 103 -90
254 -90 356 0 26 22 52 40 60 40 12 0 85 -70 117 -112 18 -24 -9 -60 -82 -115
-87 -63 -171 -86 -300 -81 -93 3 -109 7 -180 41 -93 44 -166 114 -214 203 -45
85 -63 162 -63 274 0 112 18 189 63 274 58 110 160 193 282 232 64 20 212 17
288 -6z m2502 5 c63 -17 155 -62 162 -81 8 -21 -51 -159 -70 -162 -9 -2 -41 8
-69 21 -111 52 -225 57 -290 13 -55 -37 -57 -107 -3 -142 14 -9 81 -33 149
-54 135 -40 196 -68 240 -108 81 -76 102 -227 45 -340 -35 -70 -71 -104 -149
-141 -50 -24 -66 -26 -185 -26 -147 0 -206 13 -294 67 -78 47 -80 53 -46 141
32 84 54 100 90 67 62 -59 218 -99 309 -80 119 25 143 131 40 180 -23 12 -83
32 -132 45 -231 64 -312 142 -312 301 0 151 68 245 213 295 66 23 220 25 302
4z m3168 -5 c70 -22 171 -89 200 -134 l18 -27 -58 -64 c-32 -35 -64 -64 -71
-65 -8 0 -34 18 -60 40 -133 118 -347 77 -428 -82 -46 -90 -48 -242 -5 -327
54 -105 134 -155 251 -155 49 0 88 5 113 16 l37 17 0 142 c0 177 1 179 105
179 42 0 76 -5 83 -12 9 -9 12 -71 12 -216 0 -233 6 -216 -101 -271 -95 -50
-159 -64 -278 -59 -98 3 -112 6 -184 40 -93 45 -166 115 -214 204 -45 85 -63
162 -63 274 0 112 18 189 63 274 58 110 182 209 295 235 71 17 215 12 285 -9z
m6562 5 c63 -17 155 -62 162 -81 8 -21 -51 -159 -70 -162 -9 -2 -41 8 -69 21
-111 52 -225 57 -290 13 -55 -37 -57 -107 -3 -142 14 -9 81 -33 149 -54 135
-40 196 -68 240 -108 81 -76 102 -227 45 -340 -35 -70 -71 -104 -149 -141 -50
-24 -66 -26 -185 -26 -147 0 -206 13 -294 67 -78 47 -80 53 -46 141 32 84 54
100 90 67 62 -59 218 -99 309 -80 119 25 143 131 40 180 -23 12 -83 32 -132
45 -231 64 -312 142 -312 301 0 151 68 245 213 295 66 23 220 25 302 4z m4078
-5 c70 -22 171 -89 200 -134 21 -31 21 -32 -52 -108 -25 -27 -51 -48 -59 -48
-8 0 -34 18 -60 40 -132 117 -337 77 -418 -82 -68 -134 -39 -329 62 -418 104
-91 260 -90 356 1 23 22 49 39 58 37 8 -2 41 -31 73 -65 l59 -62 -47 -50 c-58
-62 -162 -117 -240 -126 l-55 -7 33 -22 c66 -44 85 -142 40 -205 -48 -65 -184
-93 -263 -53 -39 19 -41 35 -15 98 14 35 17 36 52 30 21 -4 45 -9 54 -12 9 -3
25 3 34 12 16 17 16 18 -1 31 -10 7 -31 13 -46 13 -36 0 -44 19 -31 75 l10 44
-51 16 c-146 47 -268 183 -311 346 -19 71 -19 230 0 304 44 169 167 299 330
351 64 20 212 17 288 -6z m960 -22 c93 -45 167 -115 214 -204 45 -85 63 -162
63 -274 0 -112 -18 -189 -63 -274 -47 -89 -121 -159 -214 -204 -77 -37 -79
-37 -203 -37 -123 0 -126 1 -201 36 -179 86 -279 257 -279 479 0 248 127 434
345 506 26 9 79 13 150 11 104 -2 114 -4 188 -39z m902 27 c63 -17 155 -62
162 -81 8 -21 -51 -159 -70 -162 -9 -2 -41 8 -69 21 -111 52 -225 57 -290 13
-55 -37 -57 -107 -3 -142 14 -9 81 -33 149 -54 135 -40 196 -68 240 -108 81
-76 102 -227 45 -340 -35 -70 -71 -104 -149 -141 -50 -24 -66 -26 -185 -26
-147 0 -206 13 -294 67 -78 47 -80 53 -46 141 32 84 54 100 90 67 62 -59 218
-99 309 -80 119 25 143 131 40 180 -23 12 -83 32 -132 45 -231 64 -312 142
-312 301 0 151 68 245 213 295 66 23 220 25 302 4z m-21324 -36 c76 -36 133
-90 166 -157 26 -52 28 -66 28 -172 0 -106 -2 -120 -28 -172 -17 -35 -48 -75
-79 -102 -34 -30 -48 -48 -43 -58 4 -7 44 -70 87 -140 44 -70 78 -136 76 -145
-3 -16 -17 -18 -103 -20 l-100 -3 -85 138 -85 137 -95 0 -95 0 -5 -135 -5
-135 -95 0 -95 0 -3 485 c-1 267 0 491 3 498 4 11 55 13 252 10 244 -3 249 -3
304 -29z m842 -6 c8 -21 97 -238 196 -483 108 -265 179 -451 175 -462 -5 -16
-18 -18 -103 -18 l-98 0 -43 110 -43 110 -198 0 -197 0 -42 -110 -43 -110 -92
0 c-67 0 -96 4 -104 14 -9 11 30 117 185 500 l197 486 98 0 97 0 15 -37z
m1155 25 c17 -17 16 -152 -1 -167 -9 -7 -93 -12 -238 -13 l-224 -3 -3 -117 -3
-118 199 0 c159 0 202 -3 211 -14 8 -9 11 -45 9 -98 l-3 -83 -205 -5 -205 -5
-5 -180 -5 -180 -95 0 -95 0 -3 485 c-1 267 0 491 3 498 6 17 645 18 663 0z
m347 -488 l0 -495 -95 0 -95 0 -3 485 c-1 267 0 491 3 498 3 9 29 12 97 10
l93 -3 0 -495z m1618 463 c8 -21 97 -238 196 -483 108 -265 179 -451 175 -462
-5 -16 -18 -18 -103 -18 l-98 0 -43 110 -43 110 -198 0 -197 0 -42 -110 -43
-110 -92 0 c-67 0 -96 4 -104 14 -9 11 30 117 185 500 l197 486 98 0 97 0 15
-37z m2715 25 c17 -17 16 -152 -1 -167 -9 -7 -93 -12 -238 -13 l-224 -3 0
-100 0 -100 205 -5 205 -5 3 -81 c2 -59 -1 -84 -11 -92 -9 -8 -82 -13 -208
-14 l-194 -3 0 -105 0 -105 240 -5 240 -5 0 -90 0 -90 -340 0 -340 0 -3 485
c-1 267 0 491 3 498 6 17 645 18 663 0z m753 -19 c76 -36 133 -90 166 -157 26
-52 28 -66 28 -172 0 -106 -2 -120 -28 -172 -17 -35 -48 -75 -79 -102 -34 -30
-48 -48 -43 -58 4 -7 44 -70 87 -140 44 -70 78 -136 76 -145 -3 -16 -17 -18
-103 -20 l-100 -3 -85 138 -85 137 -95 0 -95 0 -5 -135 -5 -135 -95 0 -95 0
-3 485 c-1 267 0 491 3 498 4 11 55 13 252 10 244 -3 249 -3 304 -29z m574
-469 l0 -495 -95 0 -95 0 -3 485 c-1 267 0 491 3 498 3 9 29 12 97 10 l93 -3
0 -495z m1776 469 c76 -36 133 -90 166 -157 26 -52 28 -66 28 -172 0 -106 -2
-120 -28 -172 -17 -35 -48 -75 -79 -102 -34 -30 -48 -48 -43 -58 4 -7 44 -70
87 -140 44 -70 78 -136 76 -145 -3 -16 -17 -18 -103 -20 l-100 -3 -85 138 -85
137 -95 0 -95 0 -5 -135 -5 -135 -95 0 -95 0 -3 485 c-1 267 0 491 3 498 4 11
55 13 252 10 244 -3 249 -3 304 -29z m852 -6 c8 -21 97 -238 196 -483 108
-265 179 -451 175 -462 -5 -16 -18 -18 -103 -18 l-98 0 -43 110 -43 110 -198
0 -197 0 -42 -110 -43 -110 -92 0 c-67 0 -96 4 -104 14 -9 11 30 117 185 500
l197 486 98 0 97 0 15 -37z m1155 25 c17 -17 16 -152 -1 -167 -9 -7 -93 -12
-238 -13 l-224 -3 -3 -117 -3 -118 199 0 c159 0 202 -3 211 -14 8 -9 11 -45 9
-98 l-3 -83 -205 -5 -205 -5 -5 -180 -5 -180 -95 0 -95 0 -3 485 c-1 267 0
491 3 498 6 17 645 18 663 0z m347 -488 l0 -495 -95 0 -95 0 -3 485 c-1 267 0
491 3 498 3 9 29 12 97 10 l93 -3 0 -495z m708 463 c8 -21 97 -238 196 -483
108 -265 179 -451 175 -462 -5 -16 -18 -18 -103 -18 l-98 0 -43 110 -43 110
-198 0 -197 0 -42 -110 -43 -110 -92 0 c-67 0 -96 4 -104 14 -9 11 30 117 185
500 l197 486 98 0 97 0 15 -37z m1525 25 c17 -17 16 -152 -1 -167 -9 -7 -93
-12 -238 -13 l-224 -3 0 -100 0 -100 205 -5 205 -5 3 -81 c2 -59 -1 -84 -11
-92 -9 -8 -82 -13 -208 -14 l-194 -3 0 -105 0 -105 240 -5 240 -5 0 -90 0 -90
-340 0 -340 0 -3 485 c-1 267 0 491 3 498 6 17 645 18 663 0z m2050 0 c17 -17
16 -152 -1 -167 -9 -7 -93 -12 -238 -13 l-224 -3 0 -100 0 -100 205 -5 205 -5
3 -81 c2 -59 -1 -84 -11 -92 -9 -8 -82 -13 -208 -14 l-194 -3 0 -105 0 -105
240 -5 240 -5 0 -90 0 -90 -340 0 -340 0 -3 485 c-1 267 0 491 3 498 6 17 645
18 663 0z m753 -19 c76 -36 133 -90 166 -157 26 -52 28 -66 28 -172 0 -106 -2
-120 -28 -172 -17 -35 -48 -75 -79 -102 -34 -30 -48 -48 -43 -58 4 -7 44 -70
87 -140 44 -70 78 -136 76 -145 -3 -16 -17 -18 -103 -20 l-100 -3 -85 138 -85
137 -95 0 -95 0 -5 -135 -5 -135 -95 0 -95 0 -3 485 c-1 267 0 491 3 498 4 11
55 13 252 10 244 -3 249 -3 304 -29z m592 -311 c72 -186 134 -338 137 -338 3
0 20 39 39 88 19 48 79 201 133 340 l99 252 94 0 c81 0 94 -2 99 -18 4 -11
-70 -213 -182 -497 l-188 -480 -100 -3 -99 -2 -185 472 c-102 259 -187 477
-188 485 -10 39 4 44 109 41 l101 -3 131 -337z m892 -158 l0 -495 -95 0 -95 0
-3 485 c-1 267 0 491 3 498 3 9 29 12 97 10 l93 -3 0 -495z m-14047 -256 c66
-46 67 -120 5 -310 l-46 -144 -64 0 c-49 0 -65 4 -70 16 -3 9 4 59 16 112 11
53 18 98 13 101 -25 17 -42 60 -42 104 0 88 43 137 120 137 25 0 56 -7 68 -16z"/>
<path d="M56300 11745 c-25 -8 -65 -31 -88 -51 -140 -119 -140 -389 0 -508 42
-36 118 -66 168 -66 50 0 126 30 168 66 80 68 118 187 100 314 -16 119 -91
215 -192 245 -60 18 -97 18 -156 0z"/>
<path d="M35802 11578 l3 -163 120 0 c136 0 173 13 209 74 25 44 25 137 0 180
-32 54 -83 71 -217 71 l-117 0 2 -162z"/>
<path d="M36826 11508 c-31 -84 -56 -156 -56 -160 0 -12 240 -10 240 2 0 17
-114 310 -121 310 -3 0 -31 -69 -63 -152z"/>
<path d="M39946 11508 c-31 -84 -56 -156 -56 -160 0 -12 240 -10 240 2 0 17
-114 310 -121 310 -3 0 -31 -69 -63 -152z"/>
<path d="M43232 11578 l3 -163 120 0 c136 0 173 13 209 74 25 44 25 137 0 180
-32 54 -83 71 -217 71 l-117 0 2 -162z"/>
<path d="M45582 11578 l3 -163 120 0 c136 0 173 13 209 74 25 44 25 137 0 180
-32 54 -83 71 -217 71 l-117 0 2 -162z"/>
<path d="M46616 11508 c-31 -84 -56 -156 -56 -160 0 -12 240 -10 240 2 0 17
-114 310 -121 310 -3 0 -31 -69 -63 -152z"/>
<path d="M48826 11508 c-31 -84 -56 -156 -56 -160 0 -12 240 -10 240 2 0 17
-114 310 -121 310 -3 0 -31 -69 -63 -152z"/>
<path d="M52972 11578 l3 -163 120 0 c136 0 173 13 209 74 25 44 25 137 0 180
-32 54 -83 71 -217 71 l-117 0 2 -162z"/>
<path d="M4991 11654 c0 -11 3 -14 6 -6 3 7 2 16 -1 19 -3 4 -6 -2 -5 -13z"/>
<path d="M15570 7940 l0 -280 7175 0 7175 0 0 280 0 280 -7175 0 -7175 0 0
-280z"/>
<path d="M44270 7940 l0 -280 7175 0 7175 0 0 280 0 280 -7175 0 -7175 0 0
-280z"/>
</g>
</svg>
